<svg width="13" height="13" viewBox="0 0 13 13" fill="none" xmlns="http://www.w3.org/2000/svg">
<path d="M6 0.700012C6.2 0.700012 6.40001 0.700012 6.70001 0.700012H6.79999C7.59999 0.800012 8.39998 0.999994 9.09998 1.39999C11 2.49999 12 4.10001 12.1 6.20001C12.2 7.30001 11.9 8.39999 11.3 9.39999C10.2 11.1 8.59998 12.1 6.59998 12.2C5.59998 12.3 4.60001 12 3.70001 11.5C2.10001 10.6 1.10001 9.19999 0.700012 7.39999C0.700012 7.19999 0.599976 7.00001 0.599976 6.70001C0.599976 6.50001 0.599976 6.3 0.599976 6V5.89999C0.699976 5.09999 0.899988 4.30001 1.29999 3.60001C2.19999 2.00001 3.60002 1.00001 5.40002 0.600006C5.50002 0.700006 5.8 0.700012 6 0.700012ZM4.59998 6C4.59998 6 4.69998 6 4.59998 6C4.89998 5.9 5.10002 5.89999 5.40002 5.89999C5.60002 5.89999 5.70001 6.00001 5.70001 6.20001C5.70001 6.40001 5.70001 6.60001 5.70001 6.70001C5.60001 7.10001 5.50002 7.49999 5.40002 7.89999C5.30002 8.29999 5.20001 8.6 5.20001 9C5.20001 9.4 5.40001 9.69999 5.70001 9.79999C6.00001 9.89999 6.29998 9.99999 6.59998 9.89999C6.89998 9.79999 7.2 9.70001 7.5 9.60001C7.5 9.60001 7.49998 9.6 7.59998 9.5C7.59998 9.4 7.70001 9.30001 7.70001 9.20001C7.50001 9.20001 7.40001 9.29999 7.20001 9.29999C6.80001 9.29999 6.59998 9.10001 6.59998 8.70001C6.69998 8.40001 6.79999 8.00001 6.79999 7.70001C6.89999 7.20001 7.09998 6.79999 7.09998 6.29999C7.09998 5.99999 7.00001 5.7 6.70001 5.5C6.40001 5.3 6.09999 5.29999 5.79999 5.29999C5.39999 5.29999 5.10001 5.50001 4.70001 5.60001C4.70001 5.60001 4.59998 5.60001 4.59998 5.70001C4.59998 5.80001 4.59998 5.9 4.59998 6ZM5.90002 3.70001C5.90002 3.80001 6 4.00001 6 4.10001C6.2 4.40001 6.6 4.6 7 4.5C7.4 4.4 7.80001 4.00001 7.70001 3.60001C7.60001 3.20001 7.30002 2.89999 6.90002 2.89999C6.40002 2.89999 6.00002 3.20001 5.90002 3.70001Z" fill="#0B56A2"/>
</svg>
