<svg width="21" height="20" viewBox="0 0 21 20" fill="none" xmlns="http://www.w3.org/2000/svg">
<path d="M20.3 8.70003C20.3 8.90003 20.3 9.10003 20.3 9.20003V9.30003C20.2 9.70003 20 10.1 19.7 10.4C19.6 10.5 19.6 10.5 19.5 10.6C19.8 11.1 19.9 11.6 19.9 12.1C19.8 12.6 19.5 13.1 19.1 13.4C19.8 14.4 19.5 15.5 18.7 16.2C18.8 16.5 19 16.9 19 17.2C19.1 18.4 18.2 19.4 17 19.4C14.9 19.4 12.9 19.4 10.8 19.4C10.2 19.4 9.59998 19.3 9.09998 19.2C8.09998 19 7.19999 18.6 6.29999 18.3C6.19999 18.3 6.20001 18.2 6.20001 18.1C6.20001 14.8 6.20001 11.5 6.20001 8.20003C6.20001 8.10003 6.19999 8.00002 6.29999 7.90002C6.89999 7.30002 7.5 6.60003 8 6.00003C8.7 5.20003 9.3 4.50003 10 3.70003C10.1 3.60003 10.1 3.50002 10.1 3.40002C10.1 2.70002 10.1 2.00003 10.1 1.30003C10.1 0.800034 10.5 0.400024 11 0.400024C12 0.400024 12.8 0.800031 13.5 1.50003C14.5 2.60003 14.6 3.90003 14.3 5.30003C14.2 5.90003 14 6.50004 13.8 7.10004C13.9 7.10004 14 7.10004 14.1 7.10004C15.5 7.10004 16.9 7.10004 18.3 7.10004C19 7.10004 19.6 7.40002 20 7.90002C20.1 8.10002 20.2 8.40003 20.3 8.70003Z" fill="#0B56A2"/>
<path d="M5 19C3.4 19 1.89999 19 0.299988 19C0.299988 14.9 0.299988 10.8 0.299988 6.60004C1.89999 6.60004 3.4 6.60004 5 6.60004C5 10.7 5 14.8 5 19Z" fill="#0B56A2"/>
</svg>
